<svg xmlns="http://www.w3.org/2000/svg" viewBox="0 0 500 500"><g id="freepik--Character--inject-2"><polygon points="241.03 407.62 233.32 407.62 232.99 389.76 240.7 389.76 241.03 407.62" style="fill:#b55b52"></polygon><polygon points="287.34 407.62 279.63 407.62 276.19 389.76 283.9 389.76 287.34 407.62" style="fill:#b55b52"></polygon><path d="M279.1,406.73h8.67a.65.65,0,0,1,.64.53l1.36,6.85a1.17,1.17,0,0,1-1.16,1.38c-3-.06-4.49-.23-8.3-.23-2.35,0-7.18.24-10.42.24s-3.58-3.2-2.25-3.49c6-1.3,8.26-3.09,10.2-4.8A1.9,1.9,0,0,1,279.1,406.73Z" style="fill:#263238"></path><path d="M233.39,406.73h8.43a.65.65,0,0,1,.64.53l1.35,6.85a1.15,1.15,0,0,1-1.14,1.38c-3-.06-7.42-.23-11.24-.23-4.47,0-8.33.24-13.57.24-3.16,0-4-3.2-2.63-3.49,6.07-1.32,11-1.46,16.29-4.68A3.63,3.63,0,0,1,233.39,406.73Z" style="fill:#263238"></path><path d="M233.16,165.55l-8.23-7.38s-20.21,18.56-24.17,18.5c-5.4-.09-16.62-.65-22.88-2-1.12.68-3.42,3.27-3.65,4.43,7.17,5.67,25.85,9.73,30.54,8.15C215.45,183.67,233.16,165.55,233.16,165.55Z" style="fill:#b55b52"></path><path d="M237.78,161.27c-.06,7.37-19.65,22.08-19.65,22.08l-11.39-13.08a98.09,98.09,0,0,1,14.81-14C229.57,150.44,237.84,153.18,237.78,161.27Z" style="fill:#263238"></path><path d="M218.13,183.35s18.09-13.58,19.55-21.18C235.37,159.8,223,166.58,218.13,183.35Z" style="opacity:0.2"></path><path d="M179.11,175.07l-6.83-6.29-6.13,7.86a34.25,34.25,0,0,0,9.8,3.53Z" style="fill:#b55b52"></path><polygon points="164.14 165.08 162.03 171.01 166.15 176.64 172.28 168.78 164.14 165.08" style="fill:#b55b52"></polygon><polygon points="232.99 389.77 233.16 398.97 240.88 398.97 240.71 389.77 232.99 389.77" style="opacity:0.2"></polygon><polygon points="283.91 389.77 276.19 389.77 277.97 398.97 285.68 398.97 283.91 389.77" style="opacity:0.2"></polygon><path d="M227.78,153.49s-9.68,23.3-2.09,66.67h41.25c.44-6.33-2.78-37.22,4.06-67.06a107.14,107.14,0,0,0-13.77-1.75,152.9,152.9,0,0,0-17.53,0A78.77,78.77,0,0,0,227.78,153.49Z" style="fill:#263238"></path><path d="M261.86,160.46c-.81,4.92.45,16.66,4.8,30.24a197.69,197.69,0,0,1,3.69-34.63V156C267.64,155.73,262.63,155.86,261.86,160.46Z" style="opacity:0.2"></path><path d="M255.34,135c-1.24,5.64-2,12.64,1.89,16.4,0,0-2.4,5.73-12.89,5.73-9.58,0-4.64-5.73-4.64-5.73,6.32-1.5,6.19-9.28,5.2-13.66Z" style="fill:#b55b52"></path><path d="M243.84,156.62l-2.27,2.52a.67.67,0,0,0-.14.65l.73,2.21a.62.62,0,0,0,.58.44l2.44.12a.69.69,0,0,0,.6-.3l1.46-2.14a.67.67,0,0,0,0-.81l-2.37-2.69A.67.67,0,0,0,243.84,156.62Z" style="fill:#989898"></path><path d="M244.35,156.07a13.36,13.36,0,0,1,1.87,6.43s13.24-4.64,12.8-11.42c0,0-1.84-1.11-3-2C256,149.07,255.47,153.35,244.35,156.07Z" style="fill:#fff"></path><path d="M244.35,156.07a18.9,18.9,0,0,0-2.71,6s-5.85-4-3.9-10.74a22.75,22.75,0,0,1,3.39-1.06S240.24,154.62,244.35,156.07Z" style="fill:#fff"></path><path d="M243.27,162.09s-3.75,27.61-3.83,32.41a46.66,46.66,0,0,0,2.12,13.4s2.57-4.88,3-13.6-.09-27.32.1-32.21Z" style="fill:#989898"></path><path d="M244.89,137.69c.59,2.57.88,6.31-.27,9.26a10.14,10.14,0,0,0,2.84-.86c3.59-1.67,5.4-4.3,7.31-8.21.17-1,.36-2,.57-2.93Z" style="opacity:0.2"></path><path d="M236.41,130.25a7,7,0,0,0,3,4.58c2.12,1.38,4-.36,4.07-2.78.07-2.18-.93-5.52-3.38-5.92A3.35,3.35,0,0,0,236.41,130.25Z" style="fill:#b55b52"></path><path d="M236.41,130.25a7,7,0,0,0,3,4.58c2.12,1.38,4-.36,4.07-2.78.07-2.18-.93-5.52-3.38-5.92A3.35,3.35,0,0,0,236.41,130.25Z" style="opacity:0.2"></path><path d="M246.75,115.5c-4.13.19-10,9.46-6.36,13.44S254.55,115.14,246.75,115.5Z" style="fill:#263238"></path><path d="M260.77,130.26c-3.26,7-4.82,11.26-9.85,13.61-7.58,3.52-15-3-13.93-10.82,1-7,6.17-17.28,14.24-17.54A10.21,10.21,0,0,1,260.77,130.26Z" style="fill:#b55b52"></path><path d="M266.22,121.26c4,2.58-1.67,14-6.81,13.69-2.27-.14-1.85-5.68.42-10.45-4.14-.18-17.78-3.2-17.33-9.65.14-2.08,2.27-3.34,5.32-4.92a3.62,3.62,0,0,0,2.05-4.41,4.9,4.9,0,0,1,1.15,5.23c-1.16,3.16,5.17,1.91,8.82,1.82C266.36,112.39,270.1,117.26,266.22,121.26Z" style="fill:#263238"></path><path d="M265.32,121.26s3.21-1.21,4.3,1.6A9.59,9.59,0,0,0,265.32,121.26Z" style="fill:#263238"></path><path d="M260.86,139.36a7.4,7.4,0,0,1-5.4,1.44c-2.52-.35-2.71-2.85-1.11-4.71,1.43-1.67,4.48-3.5,6.57-2.21S262.76,137.9,260.86,139.36Z" style="fill:#b55b52"></path><path d="M225.69,220.16s-2.48,57.67-2.22,81.19c.28,24.47,6.86,95.84,6.86,95.84H243.4s2.4-69.94,3.57-94c1.28-26.19,5.84-83.06,5.84-83.06Z" style="fill:#989898"></path><path d="M244.36,393.19c.06,0-.11,4.27-.11,4.27H229.19l-.52-4.8Z" style="fill:#263238"></path><path d="M243.36,235.43c-.45,28.61.85,46,4,60,.79-13.65,2.08-31.7,3.21-46.69Z" style="opacity:0.2"></path><path d="M240.32,220.16s7.31,59,11.58,81c4.66,24.18,22.52,96,22.52,96h14.12S277.4,327.33,275,303.38c-2.62-26-8-83.22-8-83.22Z" style="fill:#989898"></path><path d="M288.63,393.51c.06,0,.61,3.95.61,3.95H273.71l-1.26-4.54Z" style="fill:#263238"></path><path d="M283.05,388.84a.12.12,0,0,1-.12-.11c-.1-.71-10.16-62.94-12.33-84.45-2.35-23.34-7.25-75.1-7.3-75.62a.13.13,0,0,1,.12-.15.13.13,0,0,1,.14.12c.05.52,4.95,52.27,7.3,75.62,2.17,21.5,12.23,83.73,12.33,84.44a.13.13,0,0,1-.11.15Z" style="opacity:0.2"></path><path d="M249.2,128.25c-.23.59-.72.94-1.1.8s-.49-.72-.26-1.31.72-.94,1.1-.8S249.43,127.67,249.2,128.25Z" style="fill:#263238"></path><path d="M242.67,125.82c-.23.58-.73.94-1.1.8s-.5-.73-.27-1.31.72-1,1.1-.81S242.9,125.23,242.67,125.82Z" style="fill:#263238"></path><path d="M244.63,126.88a22.89,22.89,0,0,1-4.73,4,3.5,3.5,0,0,0,2.56,1.56Z" style="fill:#a02724"></path><path d="M243.51,134.63a.17.17,0,0,1-.1-.23.2.2,0,0,1,.24-.11,5,5,0,0,0,4.44-.41.19.19,0,0,1,.26,0,.19.19,0,0,1,0,.26A5.25,5.25,0,0,1,243.51,134.63Z" style="fill:#263238"></path><path d="M252,126.86a.4.4,0,0,1-.22-.24,2.78,2.78,0,0,0-1.72-2,.37.37,0,0,1-.24-.46.39.39,0,0,1,.46-.25,3.5,3.5,0,0,1,2.21,2.45.37.37,0,0,1-.26.45A.36.36,0,0,1,252,126.86Z" style="fill:#263238"></path><path d="M240.65,122.38a.35.35,0,0,1-.07-.61,3.69,3.69,0,0,1,3.25-.82.36.36,0,0,1,.24.46.38.38,0,0,1-.46.24h0a3,3,0,0,0-2.57.68A.37.37,0,0,1,240.65,122.38Z" style="fill:#263238"></path><path d="M264.26,165.79,275,162.3s9.86,25.14,13.52,26.59c5,2,15.07,7.28,21.35,8.54.72,1.06,1.68,4.32,1.38,5.47-9,2.34-27.32-2.59-30.93-5.83C272.07,189.69,264.26,165.79,264.26,165.79Z" style="fill:#b55b52"></path><path d="M271,153.1c7.27,1.06,15,26.35,15,26.35l-15.54,8.65s-6.45-12-9.56-21C257.65,157.79,263.2,152,271,153.1Z" style="fill:#263238"></path><path d="M276.52,408.08a2.29,2.29,0,0,1-1.47-.39,1.06,1.06,0,0,1-.36-1,.61.61,0,0,1,.33-.52c.85-.43,3.31,1.09,3.59,1.27a.18.18,0,0,1,.08.18.2.2,0,0,1-.14.15A9.21,9.21,0,0,1,276.52,408.08Zm-1.11-1.6a.52.52,0,0,0-.23,0c-.05,0-.11.07-.12.21a.71.71,0,0,0,.23.67,3.69,3.69,0,0,0,2.73.13A7.28,7.28,0,0,0,275.41,406.48Z" style="fill:#989898"></path><path d="M278.5,407.81l-.08,0c-.79-.44-2.29-2.13-2.11-3a.63.63,0,0,1,.59-.48,1,1,0,0,1,.78.24c.87.73,1,3,1,3.05a.2.2,0,0,1-.09.17A.17.17,0,0,1,278.5,407.81ZM277,404.68h-.08c-.24,0-.26.13-.27.18-.11.51.84,1.78,1.62,2.39a4.3,4.3,0,0,0-.85-2.42A.63.63,0,0,0,277,404.68Z" style="fill:#989898"></path><path d="M230.15,408.08a2.9,2.9,0,0,1-1.86-.47,1,1,0,0,1-.32-.89.6.6,0,0,1,.31-.49c.95-.53,4,1,4.36,1.23a.18.18,0,0,1,.09.19.17.17,0,0,1-.15.15A13.1,13.1,0,0,1,230.15,408.08Zm-1.36-1.6a.69.69,0,0,0-.34.07.23.23,0,0,0-.12.19.68.68,0,0,0,.21.59c.46.42,1.73.5,3.44.21A9.8,9.8,0,0,0,228.79,406.48Z" style="fill:#989898"></path><path d="M232.55,407.81l-.08,0c-.92-.42-2.72-2.08-2.56-3,0-.2.19-.46.69-.51a1.3,1.3,0,0,1,1,.32c1,.8,1.12,2.88,1.12,3a.16.16,0,0,1-.08.16A.14.14,0,0,1,232.55,407.81Zm-1.81-3.13h-.11c-.33,0-.35.16-.36.2-.1.52,1.12,1.83,2.06,2.41a4.16,4.16,0,0,0-1-2.38A1,1,0,0,0,230.74,404.68Z" style="fill:#989898"></path><path d="M310.54,203.07l7.34.35-3.9-8s-6.43-.1-7.49,4.85Z" style="fill:#b55b52"></path><polygon points="323.83 199.55 319.94 192.48 313.98 195.42 317.88 203.42 323.83 199.55" style="fill:#b55b52"></polygon></g></svg>